<svg xmlns="http://www.w3.org/2000/svg" viewBox="0 0 624.81 219.08"><defs><style>.cls-1{fill:#ffc40f;}.cls-2{fill:#fe7315;}.cls-3{fill:red;}.cls-4{fill:#f4136b;}.cls-5{fill:#63c0ad;}.cls-6{fill:#45b1c9;}.cls-7{fill:#82027e;}</style></defs><g id="Layer_2" data-name="Layer 2"><g id="_ëîé_1" data-name="‘ëîé_1"><rect class="cls-1" x="60.38" width="60.38" height="60.38"/><polygon class="cls-2" points="181.13 60.38 120.75 60.38 120.75 0 181.13 60.38"/><rect class="cls-3" x="120.75" y="60.38" width="60.38" height="60.38"/><rect class="cls-4" x="120.75" y="120.75" width="60.38" height="60.38"/><rect class="cls-5" y="60.38" width="60.38" height="60.38"/><polygon class="cls-6" points="60.38 181.13 0 120.75 60.38 120.75 60.38 181.13"/><rect class="cls-7" x="60.38" y="120.75" width="60.38" height="60.38"/><path d="M290.12,71.85h15v112h-15v-6.76q-8.81,8.63-19.95,8.62a28.43,28.43,0,0,1-22-9.68q-8.68-9.88-8.68-24.66,0-14.45,8.68-24.13a27.7,27.7,0,0,1,21.68-9.74q11.34,0,20.28,9.28Zm-35.39,79.48q0,9.28,5,15.11a16.26,16.26,0,0,0,12.86,5.9,17.13,17.13,0,0,0,13.39-5.7q5.1-5.89,5.1-15t-5.1-15a16.9,16.9,0,0,0-13.26-5.77,16.49,16.49,0,0,0-12.86,5.84A21.5,21.5,0,0,0,254.73,151.33Z"/><path d="M382.73,155H336.46q.6,8,5.17,12.66a15.74,15.74,0,0,0,11.73,4.64,15.27,15.27,0,0,0,9.22-2.65q3.57-2.66,8.15-9.81l12.59,7a50.57,50.57,0,0,1-6.16,8.52,33.28,33.28,0,0,1-7,5.83,28.22,28.22,0,0,1-8,3.35,39.41,39.41,0,0,1-9.35,1.06q-14.44,0-23.2-9.28t-8.75-24.8q0-15.3,8.49-24.79T352,117.46q14.25,0,22.53,9.08t8.22,25Zm-15.32-12.2q-3.11-11.93-15-11.93a15.56,15.56,0,0,0-5.11.83,14.48,14.48,0,0,0-4.34,2.39,15.22,15.22,0,0,0-3.35,3.74,17.83,17.83,0,0,0-2.12,5Z"/><path d="M436.55,130.25l-12.33,6.56q-2.91-6-7.22-6a5,5,0,0,0-3.52,1.36,4.53,4.53,0,0,0-1.45,3.48q0,3.7,8.61,7.35,11.87,5.11,16,9.42t4.11,11.6a20.34,20.34,0,0,1-6.89,15.64,23.48,23.48,0,0,1-16.18,6q-16.25,0-23-15.85l12.73-5.9a27.19,27.19,0,0,0,4,5.9,9.23,9.23,0,0,0,6.5,2.52q7.54,0,7.55-6.89,0-4-5.83-7.43c-1.5-.75-3-1.48-4.51-2.18s-3-1.44-4.57-2.19q-6.49-3.18-9.15-6.36A15.72,15.72,0,0,1,398,136.88,18.41,18.41,0,0,1,403.81,123a20.21,20.21,0,0,1,14.32-5.5Q430.52,117.46,436.55,130.25Z"/><path d="M451.87,92.4a9.73,9.73,0,0,1,9.67-9.61,9.4,9.4,0,0,1,6.9,2.85,9.16,9.16,0,0,1,2.85,6.83,9.39,9.39,0,0,1-2.85,6.89,9.18,9.18,0,0,1-6.83,2.85,9.73,9.73,0,0,1-9.74-9.81ZM469,119.25v64.56H454.12V119.25Z"/><path d="M550.37,182.29q0,4.58-.3,8.05a54.72,54.72,0,0,1-.83,6.13A27.33,27.33,0,0,1,543,209q-8.75,10.08-24.06,10.08-12.93,0-21.28-7-8.61-7.17-9.94-19.82h15a16.81,16.81,0,0,0,2.85,7.35q4.63,6,13.52,6,16.38,0,16.37-20.09v-9q-8.88,9.07-20.48,9.08a27.53,27.53,0,0,1-21.61-9.55q-8.49-9.68-8.48-24.19,0-14.13,7.89-24,8.48-10.47,22.4-10.47a26,26,0,0,1,20.28,9.08v-7.29h14.92Zm-14.32-30.63q0-9.41-5-15A16.65,16.65,0,0,0,518,130.85a16.08,16.08,0,0,0-13.39,6.29q-4.44,5.64-4.44,14.59t4.44,14.45q4.85,6.16,13.39,6.16t13.53-6.23Q536.05,160.49,536.05,151.66Z"/><path d="M569.2,119.25h15v6q7.82-7.75,17.63-7.75,11.27,0,17.56,7.09,5.45,6,5.44,19.69v39.57h-15V147.75q0-9.54-2.65-13.19c-1.73-2.48-4.86-3.71-9.42-3.71-4.94,0-8.46,1.63-10.53,4.9s-3.05,8.86-3.05,16.91v31.15h-15Z"/></g></g></svg>