<?xml version="1.0" encoding="utf-8"?>
<!-- Generator: Adobe Illustrator 25.0.0, SVG Export Plug-In . SVG Version: 6.00 Build 0)  -->
<svg version="1.1" id="Layer_1" xmlns="http://www.w3.org/2000/svg" xmlns:xlink="http://www.w3.org/1999/xlink" x="0px" y="0px"
	 viewBox="0 0 512 384" style="enable-background:new 0 0 512 384;" xml:space="preserve">
<style type="text/css">
	.st0{fill:#CF649A;}
	.st1{fill:#1B1F23;}
	.st2{fill:#161312;}
	.st3{fill:#171413;}
</style>
<path class="st0" d="M409.8,212.7c-14.9,0.1-27.8,3.7-38.6,9c-4-7.9-8-14.8-8.7-20c-0.7-6-1.7-9.7-0.7-16.8
	c0.9-7.2,5.1-17.3,5.1-18.2c-0.1-0.7-0.9-4.4-9.5-4.5c-8.6-0.1-16,1.7-16.8,3.9c-0.8,2.2-2.5,7.4-3.6,12.7
	c-1.5,7.8-17.2,35.6-26.1,50.1c-2.9-5.7-5.4-10.7-5.9-14.7c-0.7-6-1.7-9.7-0.7-16.8c0.9-7.2,5.1-17.3,5.1-18.2
	c-0.1-0.7-0.9-4.4-9.5-4.5c-8.6-0.1-16,1.7-16.8,3.9c-0.8,2.2-1.7,7.6-3.6,12.7c-1.7,5.2-22.6,51.5-28,63.5
	c-2.7,6.2-5.2,11.1-6.9,14.4c-1.7,3.3-0.1,0.2-0.2,0.6c-1.5,2.8-2.3,4.4-2.3,4.4v0.1c-1.2,2.1-2.4,4.1-3,4.1
	c-0.4,0-1.2-5.6,0.2-13.2c3.1-16.1,10.6-41.1,10.5-42.1c0-0.4,1.4-4.8-4.8-7.1c-6.1-2.2-8.2,1.5-8.7,1.5c-0.5,0-0.9,1.3-0.9,1.3
	s6.7-28.2-12.9-28.2c-12.3,0-29.3,13.4-37.7,25.6c-5.3,2.9-16.7,9.1-28.6,15.7c-4.6,2.5-9.3,5.2-13.8,7.6l-0.9-1
	c-23.8-25.4-67.9-43.4-66-77.5c0.7-12.4,5-45.1,84.6-84.8c65.2-32.5,117.4-23.6,126.5-3.7c12.9,28.3-27.9,80.9-95.7,88.5
	c-25.8,2.9-39.4-7.1-42.8-10.8c-3.6-3.9-4.1-4.1-5.4-3.3c-2.2,1.2-0.8,4.7,0,6.7c2,5.2,10.3,14.6,24.5,19.2
	c12.4,4.1,42.7,6.3,79.4-7.8c41.1-15.9,73.1-60,63.7-96.9c-9.6-37.6-71.9-49.9-130.7-29c-35.1,12.5-73,32-100.3,57.5
	c-32.5,30.3-37.6,56.8-35.5,67.8c7.6,39.2,61.6,64.8,83.3,83.7c-1.1,0.6-2.1,1.2-3,1.7c-10.8,5.3-52,26.9-62.4,49.7
	C49.5,325.6,63,344.2,72,346.6c27.8,7.7,56.3-6.2,71.7-29.1c15.3-22.9,13.5-52.6,6.4-66.2l-0.2-0.5l8.5-5c5.5-3.2,10.9-6.2,15.7-8.8
	c-2.7,7.2-4.6,15.8-5.6,28.3c-1.2,14.7,4.8,33.6,12.7,41.1c3.5,3.2,7.7,3.3,10.2,3.3c9.2,0,13.3-7.6,17.9-16.7
	c5.7-11.1,10.7-23.9,10.7-23.9s-6.2,34.7,10.8,34.7c6.2,0,12.5-8.1,15.3-12.2v0.1c0,0,0.2-0.2,0.5-0.8c0.7-1,1-1.6,1-1.6v-0.2
	c2.5-4.3,8.1-14.2,16.4-30.6c10.7-21.2,21.1-47.6,21.1-47.6s1,6.5,4.1,17.2c1.8,6.3,5.8,13.2,8.9,20c-2.5,3.5-4,5.5-4,5.5l0.1,0.1
	c-2,2.7-4.2,5.5-6.6,8.3c-8.5,10.2-18.7,21.7-20,25.1c-1.6,3.9-1.2,6.8,1.8,9.2c2.2,1.7,6.2,2,10.5,1.7c7.7-0.5,13-2.4,15.7-3.6
	c4.2-1.5,8.9-3.7,13.5-7.1c8.3-6.2,13.4-14.9,12.9-26.6c-0.2-6.4-2.3-12.7-4.9-18.7c0.7-1.1,1.5-2.2,2.2-3.3
	c13.2-19.2,23.3-40.4,23.3-40.4s1,6.5,4.1,17.2c1.6,5.4,4.7,11.3,7.6,17.2c-12.3,10.1-20.1,21.7-22.7,29.4
	c-4.9,14.2-1.1,20.6,6.2,22.1c3.2,0.7,7.9-0.8,11.4-2.3c4.3-1.4,9.6-3.8,14.4-7.4c8.3-6.2,16.3-14.7,15.9-26.3
	c-0.2-5.3-1.7-10.6-3.6-15.6c10.5-4.3,24.1-6.8,41.3-4.7c37.1,4.3,44.4,27.5,43,37.1c-1.4,9.7-9.2,15-11.7,16.7
	c-2.6,1.6-3.4,2.2-3.2,3.3c0.3,1.7,1.5,1.7,3.7,1.3c3.1-0.5,19.5-7.9,20.2-25.7C470.1,237.5,448.4,212.5,409.8,212.7L409.8,212.7z
	 M124,309.1c-12.2,13.4-29.5,18.5-36.8,14.2c-7.9-4.6-4.8-24.3,10.2-38.6c9.2-8.7,21.1-16.7,28.9-21.6c1.7-1.1,4.4-2.7,7.6-4.6
	c0.5-0.3,0.8-0.5,0.8-0.5c0.6-0.3,1.2-0.7,1.9-1.2C142.3,277.2,137,295,124,309.1L124,309.1z M213.6,248.2
	c-4.2,10.4-13.2,37.1-18.7,35.6c-4.7-1.2-7.5-21.5-0.9-41.5c3.3-10.1,10.4-22.1,14.6-26.7c6.7-7.5,14.1-10,15.9-6.9
	C226.6,212.7,216.2,241.7,213.6,248.2z M287.4,283.5c-1.8,0.9-3.5,1.6-4.2,1.1c-0.6-0.3,0.7-1.6,0.7-1.6s9.2-9.9,12.9-14.5
	c2.1-2.7,4.6-5.7,7.2-9.2v1C304.1,272.3,292.6,280.3,287.4,283.5z M344.4,270.5c-1.3-1-1.2-4.1,3.3-13.7c1.7-3.8,5.7-10.2,12.7-16.3
	c0.8,2.5,1.3,4.9,1.2,7.2C361.5,262.6,350.9,268.2,344.4,270.5z"/>
<path class="st1" d="M1007.3,170.5c-2.1,3-3.8,5.9-4.3,9.4c-0.2,1.3-1.3,1.5-2.4,1.9c-7.9,2.9-15.3,0.6-19.9-6.4
	c-1.8-2.7-3.7-5.2-6.5-7c-2.3-1.5-4.8-2.1-7.5-1.8c-0.8,0.1-1.7,0.1-2,1.1c-0.3,0.9,0.3,1.7,1,2.1c6.2,3.5,8.9,9.6,11.9,15.6
	c2,4,5.9,5.8,10,6.7c2.4,0.5,5,0.5,7.4,0.6c2.4,0.1,5.5-1.7,7,0c1.2,1.4,0.4,4.5,0.4,6.9c0,1.5,0,3.1,0,4.6c0,5.5-2.1,7-7.4,5.1
	c-8.8-3.2-16.9-7.7-23.8-13.9c-24.2-21.8-33-48.9-24.4-80.2c8.6-31.3,30.3-50.4,62.2-56.1c48.3-8.6,92.3,30.2,90.6,79.3
	c-1.1,31.7-21,59.6-50.3,70.6c-6.3,2.3-8.2,1-8.2-5.8c0-5.7,0.1-11.4,0.1-17.1c0-5.5-0.6-10.9-5-15.6c3-0.5,5.5-0.9,8-1.5
	c17.4-4.1,26.1-14.6,27.3-32.6c0.6-9-0.9-17.3-6.9-24.3c-1-1.2-0.6-2.1-0.3-3.3c1.5-5.4,1-10.8-0.5-16.2c-0.6-2.1-1.7-2.8-3.8-2.6
	c-6,0.6-11.1,3.4-16,6.5c-1.9,1.2-3.4,1.4-5.6,0.9c-11.2-2.6-22.4-2.6-33.5,0.1c-1.8,0.4-3.1,0.2-4.6-0.8c-4.6-3-9.5-5.4-14.9-6.6
	c-3.2-0.7-5.1,0.1-5.7,3.7c-1,5-1.5,9.9-0.1,14.8c0.4,1.5,0.2,2.6-0.8,3.9c-15.8,21.2-4.1,51.5,21.8,56.6
	C1002.8,169.8,1004.8,170.1,1007.3,170.5z"/>
<path class="st2" d="M948.5,270.5c0,4.9-0.1,9.7,0,14.6c0.1,2.1-0.6,3.3-2.5,4.1c-10.8,4.8-21.8,5.2-32.9,1
	c-7.4-2.9-11.7-8.8-13.7-16.2c-3-11.3-2.9-22.6,0.7-33.7c3-9.3,9.5-15.3,19.3-16.9c7.9-1.3,15.8-1,23.6,1.5c2.4,0.8,3.2,2,2.4,4.4
	c-0.8,2.7-0.6,6.2-2.3,8.1c-1.8,2-4.9-0.8-7.6-0.8c-2.5,0-5-0.3-7.5-0.2c-8.6,0.4-13.2,4.1-15,12.4c-1.5,6.6-1.5,13.2,0.3,19.7
	c2.5,9,10.4,13.3,19.4,10.7c1.4-0.4,1.5-1.3,1.5-2.4c0-3-0.1-5.9,0-8.9c0.1-1.9-0.6-2.3-2.4-2.4c-7.1-0.1-7.1-0.2-7.1-7.4
	c0-0.7,0.1-1.4,0-2.1c-0.4-2.5,0.6-3.3,3.1-3.2c5.8,0.2,11.6,0.2,17.5,0c2.8-0.1,3.4,0.9,3.3,3.5
	C948.4,260.9,948.5,265.7,948.5,270.5z"/>
<path class="st2" d="M1012.4,258.5c0-10,0.1-20-0.1-29.9c0-2.5,0.5-3.7,3.3-3.5c2.5,0.3,5,0.2,7.5,0c2.8-0.2,3.8,0.6,3.7,3.5
	c-0.2,6.3,0,12.6-0.1,18.9c0,2.1,0.6,2.6,2.6,2.6c4.5-0.1,9-0.2,13.5,0c2.4,0.1,3.3-0.5,3.2-3.1c-0.2-6.3,0-12.6-0.1-18.9
	c-0.1-2.3,0.6-3.2,3-3c3,0.2,5.9,0.1,8.9,0c1.9-0.1,2.5,0.7,2.5,2.5c0,20.6,0,41.1,0,61.7c0,2-0.8,2.4-2.6,2.4
	c-3.1-0.1-6.2-0.1-9.3,0c-2.1,0.1-2.6-0.8-2.6-2.7c0.1-7.6-0.1-15.2,0.1-22.8c0.1-2.5-0.6-3.3-3.2-3.2c-4.4,0.2-8.8,0.2-13.2,0
	c-2.3-0.1-3,0.5-3,2.9c0.2,7.5-0.1,15,0.1,22.5c0.1,2.8-0.9,3.5-3.5,3.3c-2.7-0.2-5.5-0.2-8.2,0c-2.3,0.1-2.8-0.8-2.8-2.9
	C1012.5,278.7,1012.4,268.6,1012.4,258.5z"/>
<path class="st2" d="M1108.1,268.9c0,6.6-0.1,13.3,0,19.9c0,2.2-0.6,3-2.8,2.9c-1.7-0.1-3.3,0-5,0c-0.6,0-1.6-0.1-1.7-0.3
	c-1.1-4.2-3.2-1.3-4.8-0.7c-5.8,2.4-11.7,2.9-17.8,1.5c-5.5-1.3-8.7-4.9-9.4-10.4c-1.2-11.1-0.3-22.3-0.5-33.4c0-1.6,0.8-2,2.2-2
	c2.8,0.1,5.7,0.2,8.5,0c2.9-0.2,3.9,0.6,3.9,3.7c-0.2,8.2-0.1,16.4,0,24.6c0,2.5-0.3,5.2,2.8,6.2c3.4,1.2,6.6,0.2,9.5-1.5
	c1.2-0.7,0.6-1.9,0.6-2.9c0-8.9,0.1-17.8,0-26.7c-0.1-2.7,0.8-3.6,3.4-3.3c2.5,0.2,5,0.3,7.5,0c3-0.3,3.6,1,3.5,3.6
	C1108,256.3,1108.1,262.6,1108.1,268.9z"/>
<path class="st2" d="M981.9,269.5c0-2.8-0.2-5.7,0-8.5c0.2-2.3-0.7-3.1-2.8-2.7c-3.6,0.6-4.7-0.7-4.8-4.5c-0.1-4.1,1-6.3,5.1-6.5
	c2-0.1,2.7-1.2,2.4-3c0-0.2,0-0.5,0-0.7c0.3-3.3-1.5-8.3,0.7-9.4c3.2-1.6,7.8-0.6,11.9-0.7c1.5,0,1.7,0.9,1.6,2.1
	c0,2.7,0.1,5.5,0,8.2c-0.1,2,0.5,2.6,2.5,2.7c7.7,0.1,7.6,0.2,7.7,8.1c0.1,3-0.7,3.9-3.7,3.8c-6.5-0.2-6.5,0-6.5,6.3
	c0,3.4,0,6.9,0,10.3c0,4.7,1.8,6.7,6.5,6.2c3.8-0.4,4.1,1.1,4,4.1c-0.2,7.3-0.3,7.5-7.9,7.6c-11.4,0.1-16.7-4.9-16.7-16.3
	C981.9,274.2,981.9,271.8,981.9,269.5z"/>
<path class="st2" d="M969.8,269.3c0,6.5-0.1,13.1,0,19.6c0,2-0.6,2.8-2.6,2.7c-3-0.1-5.9-0.1-8.9,0c-2.2,0.1-2.9-0.8-2.9-2.9
	c0.1-13.2,0.1-26.4,0-39.6c0-2.3,0.8-2.9,2.9-2.8c3,0.1,5.9,0.1,8.9,0c2.1-0.1,2.6,0.8,2.6,2.7C969.8,255.8,969.8,262.5,969.8,269.3
	z"/>
<path class="st3" d="M970.7,234.7c0,4.4-3.6,8-7.9,8c-4.3,0-8.1-3.9-8-8.3c0.1-4.3,3.9-7.9,8.1-7.8
	C967.3,226.7,970.8,230.3,970.7,234.7z"/>
<path class="st2" d="M1156.7,258.6c-1.9-9.6-7.6-13.9-17.4-13.6c-3.6,0.1-6.9,1.4-10.5,2.7c0-6.4-0.2-12.6,0.1-18.8
	c0.1-3.3-1-4.2-4-3.9c-2.4,0.2-4.8,0.2-7.1,0c-2.8-0.3-3.3,0.9-3.3,3.4c0.1,18.8,0.1,37.6,0.1,56.3c0,6.8,0,6.7,7,6.8
	c2.2,0,4-0.1,3.9-3.4c3.2,2.2,6.4,3.6,9.8,4.2c11.1,2.2,18.6-2,21.1-12C1158,273.2,1158.1,265.9,1156.7,258.6z M1142.1,278.2
	c-1.1,3.1-4.1,3.3-6.9,3.1c-5.8-0.4-6.6-1.4-6.6-7c0-1.8,0-3.6,0-5.3c0-1.9,0.2-3.8,0-5.7c-0.6-3.8,0.8-5.6,4.6-6.3
	c4.7-0.8,7.8,0,9,3.5C1144.2,266.3,1144,272.4,1142.1,278.2z"/>
</svg>
